<svg xmlns="http://www.w3.org/2000/svg" id="flag-icon-css-00" width="640" height="480">
    <rect x="0" y="0" width="640" height="480" />
    <g id="symbol">
        <g id="bones">
            <path fill="#FFFFFF" d="M347,368.7c-14.2,0-32.4,10.1-40.4,22.2c-4,8.1-10.1,14.2-16.2,14.2c-18.3,4.2-38.5,34.5-34.5,50.7     c4,20.2,20.2,28.3,56.6,32.4c56.6,8.1,153.8,46.5,251,99.2c97.2,54.6,133.6,72.9,141.7,72.9c6.1,0,28.3,16.2,48.5,34.4     c10.1,10.1,26.3,22.2,34.4,28.3c30.3,18.2,50.6,14.2,70.9-18.2c4-6.1,8.1-10.1,12.1-8.1c8.1,2,26.3-6.1,32.4-16.2     c4-10.1,4-28.3-4-34.4c-12.1-12.1-22.2-14.2-77-18.2c-58.6-2-87.1-10.1-123.5-30.3c-10.1-6.1-28.3-14.2-38.4-20.2     s-38.4-22.2-60.7-34.4c-48.5-28.3-117.4-66.7-147.7-81c-28.3-16.2-52.6-36.4-68.8-60.7C369.3,378.9,359.2,368.7,347,368.7z"/>
            <path fill="#FFFFFF" d="M517,569.2l-32.4,16.2c-58.6,26.3-83,30.3-170,26.3c-22.2-2-30.3,0-42.5,6.1     c-14.2,8.1-18.2,16.2-16.2,32.4c4,12.1,10.1,18.2,28.3,24.3c10.1,4,14.2,8.1,16.2,16.2c2,6.1,8.1,16.2,14.2,20.2     c22.2,18.2,52.6,8.1,103.2-30.3c14.2-10.1,36.4-22.2,48.5-26.3c18.2-8.1,54.6-24.3,101.2-44.5l10.1-4l-16.2-10.1     c-10.1-6.1-24.3-14.2-30.3-18.2L517,569.2z"/>
            <path fill="#FFFFFF" d="M838.1,380.8c-4.2,0-8,0.7-11.5,2.1c-4,2-12.1,12.1-20.2,22.2c-22.2,32.4-46.5,50.6-97.2,74.9     c-70.9,32.4-109.3,50.6-107.3,52.6c0,2,14.2,10.1,28.3,18.2l28.3,16.2l36.4-14.2c54.6-22.2,125.5-42.5,165.9-46.5     c44.5-6.1,46.5-6.1,56.6-16.2c8.1-10.1,10.1-28.3,0-42.5c-2-6.1-12.1-16.2-22.2-22.2c-12.1-6.1-18.2-14.2-18.2-18.2     C877.3,394.1,855.9,381,838.1,380.8z"/>
        </g>
        <g id="teeth">
            <path fill="#FFFFFF" d="M585.8,374.8c-2,0-4,2-4,8.1c0,0-2,12.1,2,10.1c4,0,12.1,4,10.1-8.1C594,378.9,589.9,374.8,585.8,374.8z"/>
            <path fill="#FFFFFF" d="M581.7,433.6c-2-10.1-2-16.2,6.1-16.2c8.1,0,10.1,4,6.1,14.2C589.9,441.7,585.8,441.7,581.7,433.6z"/>
            <path fill="#FFFFFF" d="M569.6,372.8c-2,0-6.1,6.1-6.1,12.1c0,2,0,8.1,0,10.1c2,0,6.1,0,8.1,0c4,0,2-12.1,2-16.2     S571.6,372.8,569.6,372.8L569.6,372.8z"/>
            <path fill="#FFFFFF" d="M565.6,433.6c-4-4-2-16.2,2-16.2s6.1,4,6.1,10.1C573.6,435.6,569.6,437.6,565.6,433.6z"/>
            <path fill="#FFFFFF" d="M610.2,433.6c-4-6.1-2-16.2,6.1-16.2c4,0,6.1,2,6.1,8.1C620.3,433.6,614.2,437.6,610.2,433.6z"/>
            <path fill="#FFFFFF" d="M547.4,429.5c-4-4-2-12.1,4-12.1c2,0,4,4,4,8.1C555.4,431.5,551.4,433.6,547.4,429.5z"/>
            <path fill="#FFFFFF" d="M600,393.1c-4-4,2-20.2,6.1-20.2c6.1,2,8.1,20.2,0,22.2C604.1,395.1,600,395.1,600,393.1z"/>
            <path fill="#FFFFFF" d="M543.3,389.1c-2-8.1,0-16.2,8.1-16.2c2,0,4,4,4,10.1C555.4,395.1,547.4,399.2,543.3,389.1z"/>
            <path fill="#FFFFFF" d="M618.2,383c0-8.1,2-10.1,6.1-10.1c4,2,6.1,4,6.1,10.1s-2,10.1-6.1,10.1     C620.3,393.1,618.2,391.1,618.2,383z"/>
        </g>
        <g id="skull">
            <path fill="#FFFFFF" d="M555.4,482.1c-18.2-6.1-20.2-8.1-42.5-34.4c-16.2-24.3-18.2-26.3-22.2-74.9c-2-28.3,0-30.3,18.2-14.2     c10.1,10.1,12.1,14.2,16.2,36.4c4,36.4,18.2,48.5,62.7,48.5c34.4,0,48.5-6.1,56.6-24.3c2-6.1,6.1-16.2,6.1-20.2     c0-18.2,8.1-34.4,18.2-40.4c6.1-4,12.1-6.1,14.2-6.1c4,0,0,64.7-6.1,74.9c-6.1,14.2-34.4,46.5-42.5,50.6     C622.3,482.1,571.6,486.1,555.4,482.1z"/>
            <path fill="#FFFFFF" d="M585.8,57.1c-40.4,2-44.5,4-66.7,14.2c-24.3,12.1-52.6,38.4-64.7,64.7c-8.1,16.2-8.1,22.2-8.1,56.6     s0,40.4,8.1,54.6c4,10.1,10.1,16.2,10.1,14.2c2,0,2-18.2,2-38.4c0-36.4,0-38.4,12.1-64.7c14.2-26.3,28.3-44.5,24.3-28.3     c-4,16.2-12.1,32.4-18.2,48.5c-8.1,16.2-10.1,24.3-10.1,54.6c0,32.4,0,38.4-6.1,40.4c-12.1,4-16.2,8.1-16.2,14.2     c-2,14.2,8.1,24.3,36.4,36.4c22.2,8.1,30.3,14.2,36.4,22.2c6.1,10.1,12.1,16.2,28.3,20.2c2,2,22.2,2,44.5,2l40.4-2l16.2-16.2     c10.1-12.1,20.2-20.2,32.4-24.3c38.4-14.2,52.6-42.5,26.3-48.5l-14.2-4v-24.3c0-24.3,2-34.4,8.1-34.4c2,0,2,10.1,2,22.2     c0,26.3,4,28.3,16.2,12.1c10.1-14.2,12.1-77,4-105.3c-10.1-36.4-42.5-68.8-83-81C632.4,57.1,620.3,57.1,585.8,57.1z M534,201.6     c9.4-0.6,19.2,3,27.5,11.3c16.2,16.2,6.1,48.5-20.2,62.7c-30.3,16.2-46.5,2-44.5-30.3C499.4,218.8,516.1,202.6,534,201.6z      M643.6,201.6c18.4-0.3,34.5,16,37.3,43.8c2,16.2,2,18.2-6.1,26.3c-18.2,18.2-42.5,10.1-56.6-16.2c-12.1-18.2-12.1-30.3,0-42.5     C626.5,205.4,635.3,201.8,643.6,201.6z M589.9,261.6c4,0,14.2,40.4,14.2,54.6c0,8.1,0,8.1-8.1,2c-8.1-4-10.1-4-18.2,0     c-10.1,8.1-12.1,6.1-10.1,0c2-4,2-12.1,4-18.2C575.7,283.8,585.8,261.6,589.9,261.6z"/>
        </g>
    </g>
</svg>